<svg height="auto" viewBox="0 0 2000 1000" xmlns="http://www.w3.org/2000/svg"><path d="M0 996.285 91 972.9l91-51.551 91-49.415 91 9.76 91-38.996 91-109.579 91 25.158 91-19.14 91 52.352 91-154.124 91 56.765 91-210.055 91 90.805 91-94.453 91-137.552 91 28.875 91 138.848 91-141.92 91-100.3 91-151.302 91 394.205 91-322.724-2 811.443H0Z" fill="#ffc8001a"/><path d="M0 996.285 91 972.9l91-51.551 91-49.415 91 9.76 91-38.996 91-109.579 91 25.158 91-19.14 91 52.352 91-154.124 91 56.765 91-210.055 91 90.805 91-94.453 91-137.552 91 28.875 91 138.848 91-141.92 91-100.3 91-151.302 91 394.205 91-322.724" fill="none" stroke="#ffc800" stroke-width="7"/></svg>