<svg height="auto" viewBox="0 0 2000 1000" xmlns="http://www.w3.org/2000/svg"><path d="m0 996.629 50-10.082 50-14.7 50-17.926 50-47.497 50 27.49 50-32.051 50-13.893 50 9.16 50-119.113 50 12.661 50 19.113 50 22.011 50-107.61 50 72.188 50-119.4 50 120.031 50-30.204 50-31.152 50-67.804 50-97.662 50 47.68 50-132.293 50 190.95 50-187.067 50 144.067 50 10.985 50-295.918 50 204.19 50-145.16 50-128.267 50 223.939 50 23.455 50-173.763 50 48.469 50-254.014 50 133.927 50-109.873 50 90.706 50 153.043 50-128.468V1000H0Z" fill="#5599FF1a"/><path d="m0 996.629 50-10.082 50-14.7 50-17.926 50-47.497 50 27.49 50-32.051 50-13.893 50 9.16 50-119.113 50 12.661 50 19.113 50 22.011 50-107.61 50 72.188 50-119.4 50 120.031 50-30.204 50-31.152 50-67.804 50-97.662 50 47.68 50-132.293 50 190.95 50-187.067 50 144.067 50 10.985 50-295.918 50 204.19 50-145.16 50-128.267 50 223.939 50 23.455 50-173.763 50 48.469 50-254.014 50 133.927 50-109.873 50 90.706 50 153.043 50-128.468" fill="none" stroke="#5599FF" stroke-width="7"/></svg>