<svg xmlns="http://www.w3.org/2000/svg" style="display: none;">

  <symbol id="home">
    <svg xmlns="http://www.w3.org/2000/svg" fill="none" viewBox="0 0 24 24" stroke-width="1.5" stroke="inherit">
        <path stroke-linecap="round" stroke-linejoin="round" d="m2.25 12 8.954-8.955c.44-.439 1.152-.439 1.591 0L21.75 12M4.5 9.75v10.125c0 .621.504 1.125 1.125 1.125H9.75v-4.875c0-.621.504-1.125 1.125-1.125h2.25c.621 0 1.125.504 1.125 1.125V21h4.125c.621 0 1.125-.504 1.125-1.125V9.75M8.25 21h8.25" />
    </svg>
  </symbol>

  <symbol id="fleet">
    <svg xmlns="http://www.w3.org/2000/svg" fill="none" viewBox="0 0 24 24" stroke-width="1.5" stroke="inherit">
        <path stroke-linecap="round" stroke-linejoin="round" d="M15 10.5a3 3 0 1 1-6 0 3 3 0 0 1 6 0Z" />
        <path stroke-linecap="round" stroke-linejoin="round" d="M19.5 10.5c0 7.142-7.5 11.25-7.5 11.25S4.5 17.642 4.5 10.5a7.5 7.5 0 1 1 15 0Z" />
    </svg>
  </symbol>
  
  <symbol id="vehicles">
    <svg xmlns="http://www.w3.org/2000/svg" fill="none" viewBox="0 0 24 24" stroke-width="1.5" stroke="inherit">
        <path stroke-linecap="round" stroke-linejoin="round" d="M8.25 18.75a1.5 1.5 0 0 1-3 0m3 0a1.5 1.5 0 0 0-3 0m3 0h6m-9 0H3.375a1.125 1.125 0 0 1-1.125-1.125V14.25m17.25 4.5a1.5 1.5 0 0 1-3 0m3 0a1.5 1.5 0 0 0-3 0m3 0h1.125c.621 0 1.129-.504 1.09-1.124a17.902 17.902 0 0 0-3.213-9.193 2.056 2.056 0 0 0-1.58-.86H14.25M16.5 18.75h-2.25m0-11.177v-.958c0-.568-.422-1.048-.987-1.106a48.554 48.554 0 0 0-10.026 0 1.106 1.106 0 0 0-.987 1.106v7.635m12-6.677v6.677m0 4.5v-4.5m0 0h-12" />
    </svg>
  </symbol>
  
  <symbol id="drivers">
    <svg xmlns="http://www.w3.org/2000/svg" fill="none" viewBox="0 0 24 24" stroke-width="1.5" stroke="inherit">
        <path stroke-linecap="round" stroke-linejoin="round" d="M15 19.128a9.38 9.38 0 0 0 2.625.372 9.337 9.337 0 0 0 4.121-.952 4.125 4.125 0 0 0-7.533-2.493M15 19.128v-.003c0-1.113-.285-2.16-.786-3.07M15 19.128v.106A12.318 12.318 0 0 1 8.624 21c-2.331 0-4.512-.645-6.374-1.766l-.001-.109a6.375 6.375 0 0 1 11.964-3.07M12 6.375a3.375 3.375 0 1 1-6.75 0 3.375 3.375 0 0 1 6.75 0Zm8.25 2.25a2.625 2.625 0 1 1-5.25 0 2.625 2.625 0 0 1 5.25 0Z" />
    </svg>
  </symbol>
  
  <symbol id="assets">
    <svg xmlns="http://www.w3.org/2000/svg" fill="none" viewBox="0 0 24 24" stroke-width="1.5" stroke="inherit">
        <path stroke-linecap="round" stroke-linejoin="round" d="m21 7.5-9-5.25L3 7.5m18 0-9 5.25m9-5.25v9l-9 5.25M3 7.5l9 5.25M3 7.5v9l9 5.25m0-9v9" />
    </svg>
  </symbol>

  <symbol id="overview">
    <svg xmlns="http://www.w3.org/2000/svg" fill="none" viewBox="0 0 24 24" stroke-width="1.5" stroke="inherit">
        <path stroke-linecap="round" stroke-linejoin="round" d="M10.5 6a7.5 7.5 0 1 0 7.5 7.5h-7.5V6Z" />
        <path stroke-linecap="round" stroke-linejoin="round" d="M13.5 10.5H21A7.5 7.5 0 0 0 13.5 3v7.5Z" />
    </svg>
  </symbol>

  <symbol id="logs">
    <svg xmlns="http://www.w3.org/2000/svg" fill="none" viewBox="0 0 24 24" stroke-width="1.5" stroke="inherit">
        <path stroke-linecap="round" stroke-linejoin="round" d="M19.5 14.25v-2.625a3.375 3.375 0 0 0-3.375-3.375h-1.5A1.125 1.125 0 0 1 13.5 7.125v-1.5a3.375 3.375 0 0 0-3.375-3.375H8.25m0 12.75h7.5m-7.5 3H12M10.5 2.25H5.625c-.621 0-1.125.504-1.125 1.125v17.25c0 .621.504 1.125 1.125 1.125h12.75c.621 0 1.125-.504 1.125-1.125V11.25a9 9 0 0 0-9-9Z" />
    </svg>
  </symbol>

  <symbol id="maintenance">
    <svg xmlns="http://www.w3.org/2000/svg" fill="none" viewBox="0 0 24 24" stroke-width="1.5" stroke="inherit">
        <path stroke-linecap="round" stroke-linejoin="round" d="M11.42 15.17 17.25 21A2.652 2.652 0 0 0 21 17.25l-5.877-5.877M11.42 15.17l2.496-3.03c.317-.384.74-.626 1.208-.766M11.42 15.17l-4.655 5.653a2.548 2.548 0 1 1-3.586-3.586l6.837-5.63m5.108-.233c.55-.164 1.163-.188 1.743-.14a4.5 4.5 0 0 0 4.486-6.336l-3.276 3.277a3.004 3.004 0 0 1-2.25-2.25l3.276-3.276a4.5 4.5 0 0 0-6.336 4.486c.091 1.076-.071 2.264-.904 2.95l-.102.085m-1.745 1.437L5.909 7.5H4.5L2.25 3.75l1.5-1.5L7.5 4.5v1.409l4.26 4.26m-1.745 1.437 1.745-1.437m6.615 8.206L15.75 15.75M4.867 19.125h.008v.008h-.008v-.008Z" />
    </svg>
  </symbol>

</svg>
